<mxfile host="app.diagrams.net" modified="2023-08-24T08:54:53.492Z" agent="Mozilla/5.0 (Windows NT 10.0; Win64; x64) AppleWebKit/537.36 (KHTML, like Gecko) Chrome/115.0.0.0 Safari/537.36" etag="Fy1Y4nqU_9Jk8vSZcvRT" version="21.6.8" type="device">
  <diagram id="C5RBs43oDa-KdzZeNtuy" name="Page-1">
    <mxGraphModel dx="1691" dy="1390" grid="1" gridSize="10" guides="1" tooltips="1" connect="1" arrows="1" fold="1" page="1" pageScale="1" pageWidth="827" pageHeight="1169" math="0" shadow="0">
      <root>
        <mxCell id="WIyWlLk6GJQsqaUBKTNV-0" />
        <mxCell id="WIyWlLk6GJQsqaUBKTNV-1" parent="WIyWlLk6GJQsqaUBKTNV-0" />
        <mxCell id="zB7iulw4yvtdJ8TS1PcW-1" value="&lt;font style=&quot;font-size: 30px;&quot;&gt;User&lt;/font&gt;" style="rounded=0;whiteSpace=wrap;html=1;strokeWidth=4;" parent="WIyWlLk6GJQsqaUBKTNV-1" vertex="1">
          <mxGeometry x="1130" y="220" width="1840" height="120" as="geometry" />
        </mxCell>
        <mxCell id="zB7iulw4yvtdJ8TS1PcW-2" value="" style="endArrow=none;html=1;rounded=0;strokeWidth=4;" parent="WIyWlLk6GJQsqaUBKTNV-1" edge="1">
          <mxGeometry width="50" height="50" relative="1" as="geometry">
            <mxPoint x="1130" y="3310" as="sourcePoint" />
            <mxPoint x="1130" y="300" as="targetPoint" />
          </mxGeometry>
        </mxCell>
        <mxCell id="zB7iulw4yvtdJ8TS1PcW-3" value="" style="endArrow=none;html=1;rounded=0;entryX=0;entryY=1;entryDx=0;entryDy=0;strokeWidth=4;" parent="WIyWlLk6GJQsqaUBKTNV-1" edge="1">
          <mxGeometry width="50" height="50" relative="1" as="geometry">
            <mxPoint x="2967" y="3310" as="sourcePoint" />
            <mxPoint x="2967.140000000001" y="350" as="targetPoint" />
          </mxGeometry>
        </mxCell>
        <mxCell id="zB7iulw4yvtdJ8TS1PcW-4" value="" style="endArrow=none;html=1;rounded=0;strokeWidth=4;" parent="WIyWlLk6GJQsqaUBKTNV-1" edge="1">
          <mxGeometry width="50" height="50" relative="1" as="geometry">
            <mxPoint x="1130" y="3310" as="sourcePoint" />
            <mxPoint x="2970" y="3310" as="targetPoint" />
          </mxGeometry>
        </mxCell>
        <mxCell id="zB7iulw4yvtdJ8TS1PcW-5" value="&lt;font style=&quot;font-size: 22px;&quot;&gt;ส่งข้อความผลการทำงานกลับเป็น string ว่า&lt;br style=&quot;border-color: var(--border-color);&quot;&gt;ได้ดำเนินการอะไรไป&lt;br style=&quot;border-color: var(--border-color);&quot;&gt;&amp;nbsp;(insert หรือ&lt;br style=&quot;border-color: var(--border-color);&quot;&gt;ไม่ insert เพราะมีข้อมูลวิชานี้อยู่เเล้ว)&lt;/font&gt;&lt;span style=&quot;font-size: 22px;&quot;&gt;&lt;br&gt;&lt;/span&gt;" style="rounded=0;whiteSpace=wrap;html=1;strokeWidth=4;" parent="WIyWlLk6GJQsqaUBKTNV-1" vertex="1">
          <mxGeometry x="1729.1300000000003" y="3029.25" width="450.87" height="120" as="geometry" />
        </mxCell>
        <mxCell id="zB7iulw4yvtdJ8TS1PcW-6" value="&lt;font style=&quot;font-size: 22px;&quot;&gt;บันทึก activity ที่ทำเข้า&lt;br&gt;log file&lt;br&gt;&lt;/font&gt;" style="rounded=0;whiteSpace=wrap;html=1;strokeWidth=4;" parent="WIyWlLk6GJQsqaUBKTNV-1" vertex="1">
          <mxGeometry x="1843.3200000000004" y="2829.25" width="220" height="120" as="geometry" />
        </mxCell>
        <mxCell id="zB7iulw4yvtdJ8TS1PcW-7" value="" style="ellipse;whiteSpace=wrap;html=1;aspect=fixed;strokeWidth=4;" parent="WIyWlLk6GJQsqaUBKTNV-1" vertex="1">
          <mxGeometry x="1925.8400000000006" y="2709.25" width="50" height="50" as="geometry" />
        </mxCell>
        <mxCell id="zB7iulw4yvtdJ8TS1PcW-8" value="" style="endArrow=classic;html=1;rounded=0;exitX=0.5;exitY=1;exitDx=0;exitDy=0;strokeWidth=4;" parent="WIyWlLk6GJQsqaUBKTNV-1" edge="1">
          <mxGeometry width="50" height="50" relative="1" as="geometry">
            <mxPoint x="1949.9300000000007" y="2762.25" as="sourcePoint" />
            <mxPoint x="1950.2000000000003" y="2822.25" as="targetPoint" />
          </mxGeometry>
        </mxCell>
        <mxCell id="zB7iulw4yvtdJ8TS1PcW-9" value="" style="endArrow=classic;html=1;rounded=0;exitX=0.5;exitY=1;exitDx=0;exitDy=0;entryX=0.5;entryY=0;entryDx=0;entryDy=0;strokeWidth=4;" parent="WIyWlLk6GJQsqaUBKTNV-1" source="zB7iulw4yvtdJ8TS1PcW-6" target="zB7iulw4yvtdJ8TS1PcW-5" edge="1">
          <mxGeometry width="50" height="50" relative="1" as="geometry">
            <mxPoint x="1948.7300000000005" y="2959.25" as="sourcePoint" />
            <mxPoint x="1949" y="3019.25" as="targetPoint" />
          </mxGeometry>
        </mxCell>
        <mxCell id="zB7iulw4yvtdJ8TS1PcW-10" value="" style="ellipse;whiteSpace=wrap;html=1;aspect=fixed;strokeWidth=4;" parent="WIyWlLk6GJQsqaUBKTNV-1" vertex="1">
          <mxGeometry x="1928.3200000000002" y="3220" width="50" height="50" as="geometry" />
        </mxCell>
        <mxCell id="zB7iulw4yvtdJ8TS1PcW-11" value="" style="ellipse;whiteSpace=wrap;html=1;aspect=fixed;fillColor=#050505;strokeWidth=4;" parent="WIyWlLk6GJQsqaUBKTNV-1" vertex="1">
          <mxGeometry x="1935.8200000000006" y="3227.5" width="35" height="35" as="geometry" />
        </mxCell>
        <mxCell id="zB7iulw4yvtdJ8TS1PcW-12" value="" style="endArrow=classic;html=1;rounded=0;exitX=0.5;exitY=1;exitDx=0;exitDy=0;entryX=0.5;entryY=0;entryDx=0;entryDy=0;strokeWidth=4;" parent="WIyWlLk6GJQsqaUBKTNV-1" edge="1" target="zB7iulw4yvtdJ8TS1PcW-10">
          <mxGeometry width="50" height="50" relative="1" as="geometry">
            <mxPoint x="1953.3200000000006" y="3149.25" as="sourcePoint" />
            <mxPoint x="1953.3199999999997" y="3250.25" as="targetPoint" />
          </mxGeometry>
        </mxCell>
        <mxCell id="zB7iulw4yvtdJ8TS1PcW-13" value="" style="endArrow=classic;html=1;rounded=0;exitX=1;exitY=0.5;exitDx=0;exitDy=0;entryX=0.464;entryY=0.025;entryDx=0;entryDy=0;entryPerimeter=0;strokeWidth=4;" parent="WIyWlLk6GJQsqaUBKTNV-1" target="zB7iulw4yvtdJ8TS1PcW-17" edge="1">
          <mxGeometry width="50" height="50" relative="1" as="geometry">
            <mxPoint x="1886.1799999999998" y="1905.25" as="sourcePoint" />
            <mxPoint x="1956.1799999999998" y="2015.25" as="targetPoint" />
            <Array as="points">
              <mxPoint x="1948" y="1905" />
            </Array>
          </mxGeometry>
        </mxCell>
        <mxCell id="zB7iulw4yvtdJ8TS1PcW-14" value="&lt;font style=&quot;font-size: 22px;&quot;&gt;ไม่มีรหัสนักศึกษา&lt;br&gt;คนนี้ใน&lt;br&gt;ในฐานข้อมูล&lt;/font&gt;" style="rhombus;whiteSpace=wrap;html=1;strokeWidth=4;" parent="WIyWlLk6GJQsqaUBKTNV-1" vertex="1">
          <mxGeometry x="1677.6799999999998" y="1800" width="208.5" height="205.25" as="geometry" />
        </mxCell>
        <mxCell id="zB7iulw4yvtdJ8TS1PcW-15" value="&lt;font style=&quot;font-size: 23px;&quot;&gt;F&lt;/font&gt;" style="text;html=1;align=center;verticalAlign=middle;resizable=0;points=[];autosize=1;strokeColor=none;fillColor=none;strokeWidth=4;" parent="WIyWlLk6GJQsqaUBKTNV-1" vertex="1">
          <mxGeometry x="1628" y="1869" width="40" height="40" as="geometry" />
        </mxCell>
        <mxCell id="zB7iulw4yvtdJ8TS1PcW-16" value="&lt;font style=&quot;font-size: 23px;&quot;&gt;T&lt;/font&gt;" style="text;html=1;align=center;verticalAlign=middle;resizable=0;points=[];autosize=1;strokeColor=none;fillColor=none;strokeWidth=4;" parent="WIyWlLk6GJQsqaUBKTNV-1" vertex="1">
          <mxGeometry x="1909" y="1869" width="40" height="40" as="geometry" />
        </mxCell>
        <mxCell id="zB7iulw4yvtdJ8TS1PcW-17" value="&lt;font style=&quot;font-size: 22px;&quot;&gt;insert ข้อมูลรหัสนักศึกษา เเละรายชื่อนักศึกษาคนที่ i เข้าฐานข้อมูล&lt;/font&gt;" style="rounded=0;whiteSpace=wrap;html=1;strokeWidth=4;" parent="WIyWlLk6GJQsqaUBKTNV-1" vertex="1">
          <mxGeometry x="1830" y="2020" width="258" height="120" as="geometry" />
        </mxCell>
        <mxCell id="zB7iulw4yvtdJ8TS1PcW-18" value="" style="ellipse;whiteSpace=wrap;html=1;aspect=fixed;strokeWidth=4;" parent="WIyWlLk6GJQsqaUBKTNV-1" vertex="1">
          <mxGeometry x="1769" y="1260" width="60" height="60" as="geometry" />
        </mxCell>
        <mxCell id="zB7iulw4yvtdJ8TS1PcW-19" value="" style="endArrow=classic;html=1;rounded=0;exitX=0;exitY=0.5;exitDx=0;exitDy=0;entryX=0;entryY=0.5;entryDx=0;entryDy=0;strokeWidth=4;" parent="WIyWlLk6GJQsqaUBKTNV-1" source="zB7iulw4yvtdJ8TS1PcW-14" target="zB7iulw4yvtdJ8TS1PcW-7" edge="1">
          <mxGeometry width="50" height="50" relative="1" as="geometry">
            <mxPoint x="1679.56" y="2020" as="sourcePoint" />
            <mxPoint x="1540" y="3069.25" as="targetPoint" />
            <Array as="points">
              <mxPoint x="1540" y="1903.25" />
              <mxPoint x="1540" y="2734.25" />
            </Array>
          </mxGeometry>
        </mxCell>
        <mxCell id="zB7iulw4yvtdJ8TS1PcW-20" value="" style="endArrow=classic;html=1;rounded=0;strokeWidth=4;exitX=0.5;exitY=1;exitDx=0;exitDy=0;entryX=0.5;entryY=0;entryDx=0;entryDy=0;" parent="WIyWlLk6GJQsqaUBKTNV-1" source="zB7iulw4yvtdJ8TS1PcW-50" target="zB7iulw4yvtdJ8TS1PcW-41" edge="1">
          <mxGeometry width="50" height="50" relative="1" as="geometry">
            <mxPoint x="1848.73" y="1841" as="sourcePoint" />
            <mxPoint x="1849.1600000000003" y="1880.75" as="targetPoint" />
          </mxGeometry>
        </mxCell>
        <mxCell id="zB7iulw4yvtdJ8TS1PcW-21" value="" style="endArrow=classic;html=1;rounded=0;exitX=1;exitY=0.5;exitDx=0;exitDy=0;entryX=1;entryY=0.5;entryDx=0;entryDy=0;strokeWidth=4;" parent="WIyWlLk6GJQsqaUBKTNV-1" source="zB7iulw4yvtdJ8TS1PcW-46" target="zB7iulw4yvtdJ8TS1PcW-18" edge="1">
          <mxGeometry width="50" height="50" relative="1" as="geometry">
            <mxPoint x="2107.9999999999995" y="2918.5000000000005" as="sourcePoint" />
            <mxPoint x="1910" y="1911" as="targetPoint" />
            <Array as="points">
              <mxPoint x="2450" y="2500" />
              <mxPoint x="2460" y="1290" />
            </Array>
          </mxGeometry>
        </mxCell>
        <mxCell id="zB7iulw4yvtdJ8TS1PcW-25" value="" style="endArrow=classic;html=1;rounded=0;exitX=0.5;exitY=1;exitDx=0;exitDy=0;entryX=0.5;entryY=0;entryDx=0;entryDy=0;strokeWidth=4;" parent="WIyWlLk6GJQsqaUBKTNV-1" edge="1">
          <mxGeometry width="50" height="50" relative="1" as="geometry">
            <mxPoint x="1789.6600000000003" y="1530" as="sourcePoint" />
            <mxPoint x="1789.6600000000003" y="1595" as="targetPoint" />
          </mxGeometry>
        </mxCell>
        <mxCell id="zB7iulw4yvtdJ8TS1PcW-26" value="" style="endArrow=classic;html=1;rounded=0;exitX=0.5;exitY=1;exitDx=0;exitDy=0;entryX=0.5;entryY=0;entryDx=0;entryDy=0;strokeWidth=4;" parent="WIyWlLk6GJQsqaUBKTNV-1" edge="1">
          <mxGeometry width="50" height="50" relative="1" as="geometry">
            <mxPoint x="1780.9299999999998" y="1735" as="sourcePoint" />
            <mxPoint x="1780.9299999999998" y="1800" as="targetPoint" />
          </mxGeometry>
        </mxCell>
        <mxCell id="zB7iulw4yvtdJ8TS1PcW-27" value="&lt;font style=&quot;font-size: 22px;&quot;&gt;สกัดข้อมูลรายชื่อนักศึกษาคนที่ i&lt;br&gt;&amp;nbsp;จากไฟล์&lt;/font&gt;" style="rounded=0;whiteSpace=wrap;html=1;strokeWidth=4;" parent="WIyWlLk6GJQsqaUBKTNV-1" vertex="1">
          <mxGeometry x="1688.9999999999998" y="1420" width="220" height="130" as="geometry" />
        </mxCell>
        <mxCell id="zB7iulw4yvtdJ8TS1PcW-31" value="&lt;font style=&quot;font-size: 22px;&quot;&gt;อ่านข้อมูลรหัสนักศึกษาจาก table&amp;nbsp;&lt;/font&gt;&lt;font style=&quot;font-size: 22px;&quot;&gt;Student&lt;/font&gt;&lt;span style=&quot;font-size: 22px;&quot;&gt;&lt;br&gt;&lt;/span&gt;" style="rounded=0;whiteSpace=wrap;html=1;strokeWidth=4;" parent="WIyWlLk6GJQsqaUBKTNV-1" vertex="1">
          <mxGeometry x="1689.0000000000002" y="1599.25" width="220" height="140" as="geometry" />
        </mxCell>
        <mxCell id="zB7iulw4yvtdJ8TS1PcW-32" value="" style="endArrow=classic;html=1;rounded=0;exitX=0;exitY=0.5;exitDx=0;exitDy=0;exitPerimeter=0;dashed=1;entryX=1;entryY=0.5;entryDx=0;entryDy=0;strokeWidth=4;" parent="WIyWlLk6GJQsqaUBKTNV-1" source="zB7iulw4yvtdJ8TS1PcW-34" target="zB7iulw4yvtdJ8TS1PcW-31" edge="1">
          <mxGeometry width="50" height="50" relative="1" as="geometry">
            <mxPoint x="1743.5" y="1149.25" as="sourcePoint" />
            <mxPoint x="1754.75" y="1119.25" as="targetPoint" />
          </mxGeometry>
        </mxCell>
        <mxCell id="zB7iulw4yvtdJ8TS1PcW-34" value="&lt;font style=&quot;font-size: 22px;&quot;&gt;&lt;font style=&quot;font-size: 22px;&quot;&gt;Database&amp;nbsp;&lt;br&gt;&lt;br&gt;Student&lt;br&gt;&lt;br style=&quot;border-color: var(--border-color);&quot;&gt;&lt;br&gt;&lt;/font&gt;&lt;/font&gt;" style="shape=cylinder3;whiteSpace=wrap;html=1;boundedLbl=1;backgroundOutline=1;size=15;strokeWidth=4;" parent="WIyWlLk6GJQsqaUBKTNV-1" vertex="1">
          <mxGeometry x="2010" y="1614.25" width="224.25" height="110" as="geometry" />
        </mxCell>
        <mxCell id="zB7iulw4yvtdJ8TS1PcW-35" value="" style="ellipse;whiteSpace=wrap;html=1;aspect=fixed;fillColor=#000000;strokeWidth=4;" parent="WIyWlLk6GJQsqaUBKTNV-1" vertex="1">
          <mxGeometry x="1770" y="430" width="60" height="60" as="geometry" />
        </mxCell>
        <mxCell id="zB7iulw4yvtdJ8TS1PcW-36" value="" style="endArrow=classic;html=1;rounded=0;exitX=0.5;exitY=1;exitDx=0;exitDy=0;strokeWidth=4;entryX=0.5;entryY=0;entryDx=0;entryDy=0;" parent="WIyWlLk6GJQsqaUBKTNV-1" source="zB7iulw4yvtdJ8TS1PcW-35" target="zB7iulw4yvtdJ8TS1PcW-38" edge="1">
          <mxGeometry width="50" height="50" relative="1" as="geometry">
            <mxPoint x="1839.5000000000002" y="720" as="sourcePoint" />
            <mxPoint x="1820" y="570" as="targetPoint" />
          </mxGeometry>
        </mxCell>
        <mxCell id="zB7iulw4yvtdJ8TS1PcW-37" value="" style="endArrow=classic;html=1;rounded=0;exitX=0.5;exitY=1;exitDx=0;exitDy=0;entryX=0.5;entryY=0;entryDx=0;entryDy=0;strokeWidth=4;" parent="WIyWlLk6GJQsqaUBKTNV-1" source="zB7iulw4yvtdJ8TS1PcW-38" target="zB7iulw4yvtdJ8TS1PcW-50" edge="1">
          <mxGeometry width="50" height="50" relative="1" as="geometry">
            <mxPoint x="1904.5000000000002" y="760" as="sourcePoint" />
            <mxPoint x="1824.5" y="789.9999999999998" as="targetPoint" />
          </mxGeometry>
        </mxCell>
        <mxCell id="zB7iulw4yvtdJ8TS1PcW-38" value="&lt;font style=&quot;font-size: 22px;&quot;&gt;เปิดไฟล์ข้อมูลนักศึกษาใหม่&lt;/font&gt;" style="rounded=0;whiteSpace=wrap;html=1;strokeWidth=4;" parent="WIyWlLk6GJQsqaUBKTNV-1" vertex="1">
          <mxGeometry x="1659.75" y="560" width="278.5" height="150" as="geometry" />
        </mxCell>
        <mxCell id="zB7iulw4yvtdJ8TS1PcW-41" value="&lt;font style=&quot;font-size: 22px;&quot;&gt;i = 0&lt;/font&gt;" style="rounded=0;whiteSpace=wrap;html=1;strokeWidth=4;" parent="WIyWlLk6GJQsqaUBKTNV-1" vertex="1">
          <mxGeometry x="1640" y="1060" width="320" height="130" as="geometry" />
        </mxCell>
        <mxCell id="zB7iulw4yvtdJ8TS1PcW-42" value="" style="endArrow=classic;html=1;rounded=0;exitX=0.5;exitY=1;exitDx=0;exitDy=0;strokeWidth=4;entryX=0.5;entryY=0;entryDx=0;entryDy=0;" parent="WIyWlLk6GJQsqaUBKTNV-1" source="zB7iulw4yvtdJ8TS1PcW-18" edge="1" target="zB7iulw4yvtdJ8TS1PcW-27">
          <mxGeometry width="50" height="50" relative="1" as="geometry">
            <mxPoint x="1790.9199999999996" y="1785.75" as="sourcePoint" />
            <mxPoint x="1799" y="1851" as="targetPoint" />
          </mxGeometry>
        </mxCell>
        <mxCell id="zB7iulw4yvtdJ8TS1PcW-43" value="&lt;font style=&quot;font-size: 22px;&quot;&gt;i = i+1&lt;br&gt;&lt;/font&gt;" style="rounded=0;whiteSpace=wrap;html=1;strokeWidth=4;" parent="WIyWlLk6GJQsqaUBKTNV-1" vertex="1">
          <mxGeometry x="1848.0000000000005" y="2204" width="220" height="120" as="geometry" />
        </mxCell>
        <mxCell id="zB7iulw4yvtdJ8TS1PcW-44" value="" style="endArrow=classic;html=1;rounded=0;exitX=0.5;exitY=1;exitDx=0;exitDy=0;entryX=0.5;entryY=0;entryDx=0;entryDy=0;strokeWidth=4;" parent="WIyWlLk6GJQsqaUBKTNV-1" edge="1">
          <mxGeometry width="50" height="50" relative="1" as="geometry">
            <mxPoint x="1951.9299999999998" y="2135.25" as="sourcePoint" />
            <mxPoint x="1951.9299999999998" y="2200.25" as="targetPoint" />
          </mxGeometry>
        </mxCell>
        <mxCell id="zB7iulw4yvtdJ8TS1PcW-45" value="" style="endArrow=classic;html=1;rounded=0;exitX=0.5;exitY=1;exitDx=0;exitDy=0;entryX=0.5;entryY=0;entryDx=0;entryDy=0;strokeWidth=4;" parent="WIyWlLk6GJQsqaUBKTNV-1" edge="1">
          <mxGeometry width="50" height="50" relative="1" as="geometry">
            <mxPoint x="1950.75" y="2324" as="sourcePoint" />
            <mxPoint x="1950.75" y="2389" as="targetPoint" />
          </mxGeometry>
        </mxCell>
        <mxCell id="zB7iulw4yvtdJ8TS1PcW-46" value="&lt;font style=&quot;font-size: 22px;&quot;&gt;i น้อยกว่าขนาด&lt;br style=&quot;border-color: var(--border-color);&quot;&gt;ของอาเรย์&lt;br style=&quot;border-color: var(--border-color);&quot;&gt;ที่เก็บรายชื่อนักศึกษา&lt;/font&gt;" style="rhombus;whiteSpace=wrap;html=1;strokeWidth=4;" parent="WIyWlLk6GJQsqaUBKTNV-1" vertex="1">
          <mxGeometry x="1816.75" y="2394" width="268.18" height="205.25" as="geometry" />
        </mxCell>
        <mxCell id="zB7iulw4yvtdJ8TS1PcW-47" value="&lt;font style=&quot;font-size: 23px;&quot;&gt;T&lt;/font&gt;" style="text;html=1;align=center;verticalAlign=middle;resizable=0;points=[];autosize=1;strokeColor=none;fillColor=none;strokeWidth=4;" parent="WIyWlLk6GJQsqaUBKTNV-1" vertex="1">
          <mxGeometry x="2098" y="2434" width="40" height="40" as="geometry" />
        </mxCell>
        <mxCell id="zB7iulw4yvtdJ8TS1PcW-48" value="&lt;font style=&quot;font-size: 23px;&quot;&gt;F&lt;/font&gt;" style="text;html=1;align=center;verticalAlign=middle;resizable=0;points=[];autosize=1;strokeColor=none;fillColor=none;strokeWidth=4;" parent="WIyWlLk6GJQsqaUBKTNV-1" vertex="1">
          <mxGeometry x="1970" y="2609.25" width="40" height="40" as="geometry" />
        </mxCell>
        <mxCell id="zB7iulw4yvtdJ8TS1PcW-49" value="" style="endArrow=classic;html=1;rounded=0;exitX=0.5;exitY=1;exitDx=0;exitDy=0;entryX=0.5;entryY=0;entryDx=0;entryDy=0;strokeWidth=4;" parent="WIyWlLk6GJQsqaUBKTNV-1" source="zB7iulw4yvtdJ8TS1PcW-46" target="zB7iulw4yvtdJ8TS1PcW-7" edge="1">
          <mxGeometry width="50" height="50" relative="1" as="geometry">
            <mxPoint x="1801.2199999999998" y="2340" as="sourcePoint" />
            <mxPoint x="1698" y="2494" as="targetPoint" />
          </mxGeometry>
        </mxCell>
        <mxCell id="zB7iulw4yvtdJ8TS1PcW-50" value="&lt;font style=&quot;font-size: 22px;&quot;&gt;สกัดข้อมูลรหัสประจำตัวนักศึกษาเเละรายชื่อนักศึกษาทุกคนจากไฟล์&lt;/font&gt;" style="rounded=0;whiteSpace=wrap;html=1;strokeWidth=4;" parent="WIyWlLk6GJQsqaUBKTNV-1" vertex="1">
          <mxGeometry x="1525" y="780" width="550" height="160" as="geometry" />
        </mxCell>
        <mxCell id="zB7iulw4yvtdJ8TS1PcW-51" value="&lt;font style=&quot;font-size: 22px;&quot;&gt;&lt;font style=&quot;font-size: 22px;&quot;&gt;Database&amp;nbsp;&lt;br&gt;&lt;br&gt;Student&lt;br&gt;&lt;br style=&quot;border-color: var(--border-color);&quot;&gt;&lt;br&gt;&lt;/font&gt;&lt;/font&gt;" style="shape=cylinder3;whiteSpace=wrap;html=1;boundedLbl=1;backgroundOutline=1;size=15;strokeWidth=4;" parent="WIyWlLk6GJQsqaUBKTNV-1" vertex="1">
          <mxGeometry x="2180" y="2025" width="224.25" height="110" as="geometry" />
        </mxCell>
        <mxCell id="zB7iulw4yvtdJ8TS1PcW-52" value="" style="endArrow=classic;html=1;rounded=0;exitX=1;exitY=0.5;exitDx=0;exitDy=0;dashed=1;entryX=0;entryY=0.5;entryDx=0;entryDy=0;entryPerimeter=0;strokeWidth=4;" parent="WIyWlLk6GJQsqaUBKTNV-1" source="zB7iulw4yvtdJ8TS1PcW-17" target="zB7iulw4yvtdJ8TS1PcW-51" edge="1">
          <mxGeometry width="50" height="50" relative="1" as="geometry">
            <mxPoint x="2199" y="1959.25" as="sourcePoint" />
            <mxPoint x="2098" y="1959.25" as="targetPoint" />
          </mxGeometry>
        </mxCell>
        <mxCell id="zB7iulw4yvtdJ8TS1PcW-54" value="" style="endArrow=classic;html=1;rounded=0;entryX=0.5;entryY=0;entryDx=0;entryDy=0;exitX=0.5;exitY=1;exitDx=0;exitDy=0;strokeWidth=4;" parent="WIyWlLk6GJQsqaUBKTNV-1" source="zB7iulw4yvtdJ8TS1PcW-41" target="zB7iulw4yvtdJ8TS1PcW-18" edge="1">
          <mxGeometry width="50" height="50" relative="1" as="geometry">
            <mxPoint x="1920" y="2131" as="sourcePoint" />
            <mxPoint x="1874.5" y="1935.9999999999998" as="targetPoint" />
          </mxGeometry>
        </mxCell>
      </root>
    </mxGraphModel>
  </diagram>
</mxfile>
